<mxfile host="Electron" agent="Mozilla/5.0 (Windows NT 10.0; Win64; x64) AppleWebKit/537.36 (KHTML, like Gecko) draw.io/26.2.2 Chrome/134.0.6998.178 Electron/35.1.2 Safari/537.36" version="26.2.2">
  <diagram name="Page-1" id="efa7a0a1-bf9b-a30e-e6df-94a7791c09e9">
    <mxGraphModel dx="1226" dy="2053" grid="1" gridSize="10" guides="1" tooltips="1" connect="1" arrows="1" fold="1" page="1" pageScale="1" pageWidth="1169" pageHeight="827" background="none" math="0" shadow="0">
      <root>
        <mxCell id="0" />
        <mxCell id="1" parent="0" />
        <mxCell id="ZKvudyieVZbR2MHL0mwF-78" value="" style="shape=partialRectangle;connectable=0;fillColor=none;top=0;left=0;bottom=0;right=0;fontStyle=0;overflow=hidden;fontSize=16;" parent="1" vertex="1">
          <mxGeometry x="600" y="-736" width="30" height="32" as="geometry">
            <mxRectangle width="30" height="40" as="alternateBounds" />
          </mxGeometry>
        </mxCell>
        <mxCell id="ZKvudyieVZbR2MHL0mwF-80" value="" style="shape=partialRectangle;connectable=0;fillColor=none;top=0;left=0;bottom=0;right=0;fontStyle=0;overflow=hidden;fontSize=16;" parent="1" vertex="1">
          <mxGeometry x="600" y="-672" width="30" height="32" as="geometry">
            <mxRectangle width="30" height="40" as="alternateBounds" />
          </mxGeometry>
        </mxCell>
        <mxCell id="ZKvudyieVZbR2MHL0mwF-2" value="Hotel" style="shape=table;startSize=40;container=1;collapsible=1;childLayout=tableLayout;fixedRows=1;rowLines=0;fontStyle=1;align=center;resizeLast=1;fontSize=16;" parent="1" vertex="1">
          <mxGeometry x="80" y="-800" width="200" height="360" as="geometry">
            <mxRectangle width="80" height="40" as="alternateBounds" />
          </mxGeometry>
        </mxCell>
        <mxCell id="ZKvudyieVZbR2MHL0mwF-3" style="shape=tableRow;horizontal=0;startSize=0;swimlaneHead=0;swimlaneBody=0;fillColor=none;collapsible=0;dropTarget=0;points=[[0,0.5],[1,0.5]];portConstraint=eastwest;top=0;left=0;right=0;bottom=1;swimlaneLine=1;fontSize=16;" parent="ZKvudyieVZbR2MHL0mwF-2" vertex="1">
          <mxGeometry y="40" width="200" height="40" as="geometry" />
        </mxCell>
        <mxCell id="ZKvudyieVZbR2MHL0mwF-4" value="PK" style="shape=partialRectangle;connectable=0;fillColor=none;top=0;left=0;bottom=0;right=0;fontStyle=0;overflow=hidden;fontSize=16;" parent="ZKvudyieVZbR2MHL0mwF-3" vertex="1">
          <mxGeometry width="30" height="40" as="geometry">
            <mxRectangle width="30" height="40" as="alternateBounds" />
          </mxGeometry>
        </mxCell>
        <mxCell id="ZKvudyieVZbR2MHL0mwF-5" value="id" style="shape=partialRectangle;connectable=0;fillColor=none;top=0;left=0;bottom=0;right=0;align=left;spacingLeft=6;fontStyle=0;overflow=hidden;fontSize=16;" parent="ZKvudyieVZbR2MHL0mwF-3" vertex="1">
          <mxGeometry x="30" width="170" height="40" as="geometry">
            <mxRectangle width="170" height="40" as="alternateBounds" />
          </mxGeometry>
        </mxCell>
        <mxCell id="Nd8yOr4sIlYYxP33gfCK-8" style="shape=tableRow;horizontal=0;startSize=0;swimlaneHead=0;swimlaneBody=0;fillColor=none;collapsible=0;dropTarget=0;points=[[0,0.5],[1,0.5]];portConstraint=eastwest;top=0;left=0;right=0;bottom=0;fontSize=16;" vertex="1" parent="ZKvudyieVZbR2MHL0mwF-2">
          <mxGeometry y="80" width="200" height="40" as="geometry" />
        </mxCell>
        <mxCell id="Nd8yOr4sIlYYxP33gfCK-9" style="shape=partialRectangle;connectable=0;fillColor=none;top=0;left=0;bottom=1;right=0;editable=1;overflow=hidden;fontSize=16;" vertex="1" parent="Nd8yOr4sIlYYxP33gfCK-8">
          <mxGeometry width="30" height="40" as="geometry">
            <mxRectangle width="30" height="40" as="alternateBounds" />
          </mxGeometry>
        </mxCell>
        <mxCell id="Nd8yOr4sIlYYxP33gfCK-10" value="hotel_uid" style="shape=partialRectangle;connectable=0;fillColor=none;top=0;left=0;bottom=1;right=0;align=left;spacingLeft=6;overflow=hidden;fontSize=16;" vertex="1" parent="Nd8yOr4sIlYYxP33gfCK-8">
          <mxGeometry x="30" width="170" height="40" as="geometry">
            <mxRectangle width="170" height="40" as="alternateBounds" />
          </mxGeometry>
        </mxCell>
        <mxCell id="ZKvudyieVZbR2MHL0mwF-6" value="" style="shape=tableRow;horizontal=0;startSize=0;swimlaneHead=0;swimlaneBody=0;fillColor=none;collapsible=0;dropTarget=0;points=[[0,0.5],[1,0.5]];portConstraint=eastwest;top=0;left=0;right=0;bottom=0;fontSize=16;" parent="ZKvudyieVZbR2MHL0mwF-2" vertex="1">
          <mxGeometry y="120" width="200" height="40" as="geometry" />
        </mxCell>
        <mxCell id="ZKvudyieVZbR2MHL0mwF-7" value="" style="shape=partialRectangle;connectable=0;fillColor=none;top=0;left=0;bottom=1;right=0;editable=1;overflow=hidden;fontSize=16;" parent="ZKvudyieVZbR2MHL0mwF-6" vertex="1">
          <mxGeometry width="30" height="40" as="geometry">
            <mxRectangle width="30" height="40" as="alternateBounds" />
          </mxGeometry>
        </mxCell>
        <mxCell id="ZKvudyieVZbR2MHL0mwF-8" value="name" style="shape=partialRectangle;connectable=0;fillColor=none;top=0;left=0;bottom=1;right=0;align=left;spacingLeft=6;overflow=hidden;fontSize=16;" parent="ZKvudyieVZbR2MHL0mwF-6" vertex="1">
          <mxGeometry x="30" width="170" height="40" as="geometry">
            <mxRectangle width="170" height="40" as="alternateBounds" />
          </mxGeometry>
        </mxCell>
        <mxCell id="ZKvudyieVZbR2MHL0mwF-9" value="" style="shape=tableRow;horizontal=0;startSize=0;swimlaneHead=0;swimlaneBody=0;fillColor=none;collapsible=0;dropTarget=0;points=[[0,0.5],[1,0.5]];portConstraint=eastwest;top=0;left=0;right=0;bottom=1;swimlaneLine=1;fontSize=16;" parent="ZKvudyieVZbR2MHL0mwF-2" vertex="1">
          <mxGeometry y="160" width="200" height="40" as="geometry" />
        </mxCell>
        <mxCell id="ZKvudyieVZbR2MHL0mwF-10" value="" style="shape=partialRectangle;connectable=0;fillColor=none;top=0;left=0;bottom=0;right=0;fontStyle=0;overflow=hidden;fontSize=16;" parent="ZKvudyieVZbR2MHL0mwF-9" vertex="1">
          <mxGeometry width="30" height="40" as="geometry">
            <mxRectangle width="30" height="40" as="alternateBounds" />
          </mxGeometry>
        </mxCell>
        <mxCell id="ZKvudyieVZbR2MHL0mwF-11" value="country" style="shape=partialRectangle;connectable=0;fillColor=none;top=0;left=0;bottom=0;right=0;align=left;spacingLeft=6;fontStyle=0;overflow=hidden;fontSize=16;" parent="ZKvudyieVZbR2MHL0mwF-9" vertex="1">
          <mxGeometry x="30" width="170" height="40" as="geometry">
            <mxRectangle width="170" height="40" as="alternateBounds" />
          </mxGeometry>
        </mxCell>
        <mxCell id="ZKvudyieVZbR2MHL0mwF-34" style="shape=tableRow;horizontal=0;startSize=0;swimlaneHead=0;swimlaneBody=0;fillColor=none;collapsible=0;dropTarget=0;points=[[0,0.5],[1,0.5]];portConstraint=eastwest;top=0;left=0;right=0;bottom=1;swimlaneLine=1;fontSize=16;" parent="ZKvudyieVZbR2MHL0mwF-2" vertex="1">
          <mxGeometry y="200" width="200" height="40" as="geometry" />
        </mxCell>
        <mxCell id="ZKvudyieVZbR2MHL0mwF-35" style="shape=partialRectangle;connectable=0;fillColor=none;top=0;left=0;bottom=0;right=0;fontStyle=0;overflow=hidden;fontSize=16;" parent="ZKvudyieVZbR2MHL0mwF-34" vertex="1">
          <mxGeometry width="30" height="40" as="geometry">
            <mxRectangle width="30" height="40" as="alternateBounds" />
          </mxGeometry>
        </mxCell>
        <mxCell id="ZKvudyieVZbR2MHL0mwF-36" value="city" style="shape=partialRectangle;connectable=0;fillColor=none;top=0;left=0;bottom=0;right=0;align=left;spacingLeft=6;fontStyle=0;overflow=hidden;fontSize=16;" parent="ZKvudyieVZbR2MHL0mwF-34" vertex="1">
          <mxGeometry x="30" width="170" height="40" as="geometry">
            <mxRectangle width="170" height="40" as="alternateBounds" />
          </mxGeometry>
        </mxCell>
        <mxCell id="ZKvudyieVZbR2MHL0mwF-37" style="shape=tableRow;horizontal=0;startSize=0;swimlaneHead=0;swimlaneBody=0;fillColor=none;collapsible=0;dropTarget=0;points=[[0,0.5],[1,0.5]];portConstraint=eastwest;top=0;left=0;right=0;bottom=1;swimlaneLine=1;fontSize=16;" parent="ZKvudyieVZbR2MHL0mwF-2" vertex="1">
          <mxGeometry y="240" width="200" height="40" as="geometry" />
        </mxCell>
        <mxCell id="ZKvudyieVZbR2MHL0mwF-38" style="shape=partialRectangle;connectable=0;fillColor=none;top=0;left=0;bottom=0;right=0;fontStyle=0;overflow=hidden;fontSize=16;" parent="ZKvudyieVZbR2MHL0mwF-37" vertex="1">
          <mxGeometry width="30" height="40" as="geometry">
            <mxRectangle width="30" height="40" as="alternateBounds" />
          </mxGeometry>
        </mxCell>
        <mxCell id="ZKvudyieVZbR2MHL0mwF-39" value="address" style="shape=partialRectangle;connectable=0;fillColor=none;top=0;left=0;bottom=0;right=0;align=left;spacingLeft=6;fontStyle=0;overflow=hidden;fontSize=16;" parent="ZKvudyieVZbR2MHL0mwF-37" vertex="1">
          <mxGeometry x="30" width="170" height="40" as="geometry">
            <mxRectangle width="170" height="40" as="alternateBounds" />
          </mxGeometry>
        </mxCell>
        <mxCell id="ZKvudyieVZbR2MHL0mwF-81" style="shape=tableRow;horizontal=0;startSize=0;swimlaneHead=0;swimlaneBody=0;fillColor=none;collapsible=0;dropTarget=0;points=[[0,0.5],[1,0.5]];portConstraint=eastwest;top=0;left=0;right=0;bottom=1;swimlaneLine=1;fontSize=16;" parent="ZKvudyieVZbR2MHL0mwF-2" vertex="1">
          <mxGeometry y="280" width="200" height="40" as="geometry" />
        </mxCell>
        <mxCell id="ZKvudyieVZbR2MHL0mwF-82" style="shape=partialRectangle;connectable=0;fillColor=none;top=0;left=0;bottom=0;right=0;fontStyle=0;overflow=hidden;fontSize=16;" parent="ZKvudyieVZbR2MHL0mwF-81" vertex="1">
          <mxGeometry width="30" height="40" as="geometry">
            <mxRectangle width="30" height="40" as="alternateBounds" />
          </mxGeometry>
        </mxCell>
        <mxCell id="ZKvudyieVZbR2MHL0mwF-83" value="stars" style="shape=partialRectangle;connectable=0;fillColor=none;top=0;left=0;bottom=0;right=0;align=left;spacingLeft=6;fontStyle=0;overflow=hidden;fontSize=16;" parent="ZKvudyieVZbR2MHL0mwF-81" vertex="1">
          <mxGeometry x="30" width="170" height="40" as="geometry">
            <mxRectangle width="170" height="40" as="alternateBounds" />
          </mxGeometry>
        </mxCell>
        <mxCell id="ZKvudyieVZbR2MHL0mwF-144" style="shape=tableRow;horizontal=0;startSize=0;swimlaneHead=0;swimlaneBody=0;fillColor=none;collapsible=0;dropTarget=0;points=[[0,0.5],[1,0.5]];portConstraint=eastwest;top=0;left=0;right=0;bottom=1;swimlaneLine=1;fontSize=16;" parent="ZKvudyieVZbR2MHL0mwF-2" vertex="1">
          <mxGeometry y="320" width="200" height="40" as="geometry" />
        </mxCell>
        <mxCell id="ZKvudyieVZbR2MHL0mwF-145" style="shape=partialRectangle;connectable=0;fillColor=none;top=0;left=0;bottom=0;right=0;fontStyle=0;overflow=hidden;fontSize=16;" parent="ZKvudyieVZbR2MHL0mwF-144" vertex="1">
          <mxGeometry width="30" height="40" as="geometry">
            <mxRectangle width="30" height="40" as="alternateBounds" />
          </mxGeometry>
        </mxCell>
        <mxCell id="ZKvudyieVZbR2MHL0mwF-146" value="price" style="shape=partialRectangle;connectable=0;fillColor=none;top=0;left=0;bottom=0;right=0;align=left;spacingLeft=6;fontStyle=0;overflow=hidden;fontSize=16;" parent="ZKvudyieVZbR2MHL0mwF-144" vertex="1">
          <mxGeometry x="30" width="170" height="40" as="geometry">
            <mxRectangle width="170" height="40" as="alternateBounds" />
          </mxGeometry>
        </mxCell>
        <mxCell id="ZKvudyieVZbR2MHL0mwF-193" style="edgeStyle=orthogonalEdgeStyle;rounded=0;orthogonalLoop=1;jettySize=auto;html=1;endArrow=ERone;endFill=0;startArrow=ERzeroToMany;startFill=0;entryX=1;entryY=0.5;entryDx=0;entryDy=0;exitX=0;exitY=0.5;exitDx=0;exitDy=0;" parent="1" source="ZKvudyieVZbR2MHL0mwF-207" target="ZKvudyieVZbR2MHL0mwF-3" edge="1">
          <mxGeometry relative="1" as="geometry">
            <mxPoint x="490" y="-790" as="sourcePoint" />
            <mxPoint x="320" y="-800" as="targetPoint" />
          </mxGeometry>
        </mxCell>
        <mxCell id="ZKvudyieVZbR2MHL0mwF-194" value="Reservation" style="shape=table;startSize=40;container=1;collapsible=1;childLayout=tableLayout;fixedRows=1;rowLines=0;fontStyle=1;align=center;resizeLast=1;fontSize=16;" parent="1" vertex="1">
          <mxGeometry x="360" y="-800" width="200" height="360" as="geometry">
            <mxRectangle width="80" height="40" as="alternateBounds" />
          </mxGeometry>
        </mxCell>
        <mxCell id="ZKvudyieVZbR2MHL0mwF-195" style="shape=tableRow;horizontal=0;startSize=0;swimlaneHead=0;swimlaneBody=0;fillColor=none;collapsible=0;dropTarget=0;points=[[0,0.5],[1,0.5]];portConstraint=eastwest;top=0;left=0;right=0;bottom=1;swimlaneLine=1;fontSize=16;" parent="ZKvudyieVZbR2MHL0mwF-194" vertex="1">
          <mxGeometry y="40" width="200" height="40" as="geometry" />
        </mxCell>
        <mxCell id="ZKvudyieVZbR2MHL0mwF-196" value="PK" style="shape=partialRectangle;connectable=0;fillColor=none;top=0;left=0;bottom=0;right=0;fontStyle=0;overflow=hidden;fontSize=16;" parent="ZKvudyieVZbR2MHL0mwF-195" vertex="1">
          <mxGeometry width="30" height="40" as="geometry">
            <mxRectangle width="30" height="40" as="alternateBounds" />
          </mxGeometry>
        </mxCell>
        <mxCell id="ZKvudyieVZbR2MHL0mwF-197" value="id" style="shape=partialRectangle;connectable=0;fillColor=none;top=0;left=0;bottom=0;right=0;align=left;spacingLeft=6;fontStyle=0;overflow=hidden;fontSize=16;" parent="ZKvudyieVZbR2MHL0mwF-195" vertex="1">
          <mxGeometry x="30" width="170" height="40" as="geometry">
            <mxRectangle width="170" height="40" as="alternateBounds" />
          </mxGeometry>
        </mxCell>
        <mxCell id="ZKvudyieVZbR2MHL0mwF-198" value="" style="shape=tableRow;horizontal=0;startSize=0;swimlaneHead=0;swimlaneBody=0;fillColor=none;collapsible=0;dropTarget=0;points=[[0,0.5],[1,0.5]];portConstraint=eastwest;top=0;left=0;right=0;bottom=0;fontSize=16;" parent="ZKvudyieVZbR2MHL0mwF-194" vertex="1">
          <mxGeometry y="80" width="200" height="40" as="geometry" />
        </mxCell>
        <mxCell id="ZKvudyieVZbR2MHL0mwF-199" value="" style="shape=partialRectangle;connectable=0;fillColor=none;top=0;left=0;bottom=1;right=0;editable=1;overflow=hidden;fontSize=16;" parent="ZKvudyieVZbR2MHL0mwF-198" vertex="1">
          <mxGeometry width="30" height="40" as="geometry">
            <mxRectangle width="30" height="40" as="alternateBounds" />
          </mxGeometry>
        </mxCell>
        <mxCell id="ZKvudyieVZbR2MHL0mwF-200" value="reservation_uid" style="shape=partialRectangle;connectable=0;fillColor=none;top=0;left=0;bottom=1;right=0;align=left;spacingLeft=6;overflow=hidden;fontSize=16;" parent="ZKvudyieVZbR2MHL0mwF-198" vertex="1">
          <mxGeometry x="30" width="170" height="40" as="geometry">
            <mxRectangle width="170" height="40" as="alternateBounds" />
          </mxGeometry>
        </mxCell>
        <mxCell id="ZKvudyieVZbR2MHL0mwF-201" value="" style="shape=tableRow;horizontal=0;startSize=0;swimlaneHead=0;swimlaneBody=0;fillColor=none;collapsible=0;dropTarget=0;points=[[0,0.5],[1,0.5]];portConstraint=eastwest;top=0;left=0;right=0;bottom=1;swimlaneLine=1;fontSize=16;" parent="ZKvudyieVZbR2MHL0mwF-194" vertex="1">
          <mxGeometry y="120" width="200" height="40" as="geometry" />
        </mxCell>
        <mxCell id="ZKvudyieVZbR2MHL0mwF-202" value="" style="shape=partialRectangle;connectable=0;fillColor=none;top=0;left=0;bottom=0;right=0;fontStyle=0;overflow=hidden;fontSize=16;" parent="ZKvudyieVZbR2MHL0mwF-201" vertex="1">
          <mxGeometry width="30" height="40" as="geometry">
            <mxRectangle width="30" height="40" as="alternateBounds" />
          </mxGeometry>
        </mxCell>
        <mxCell id="ZKvudyieVZbR2MHL0mwF-203" value="username" style="shape=partialRectangle;connectable=0;fillColor=none;top=0;left=0;bottom=0;right=0;align=left;spacingLeft=6;fontStyle=0;overflow=hidden;fontSize=16;" parent="ZKvudyieVZbR2MHL0mwF-201" vertex="1">
          <mxGeometry x="30" width="170" height="40" as="geometry">
            <mxRectangle width="170" height="40" as="alternateBounds" />
          </mxGeometry>
        </mxCell>
        <mxCell id="ZKvudyieVZbR2MHL0mwF-204" style="shape=tableRow;horizontal=0;startSize=0;swimlaneHead=0;swimlaneBody=0;fillColor=none;collapsible=0;dropTarget=0;points=[[0,0.5],[1,0.5]];portConstraint=eastwest;top=0;left=0;right=0;bottom=1;swimlaneLine=1;fontSize=16;" parent="ZKvudyieVZbR2MHL0mwF-194" vertex="1">
          <mxGeometry y="160" width="200" height="40" as="geometry" />
        </mxCell>
        <mxCell id="ZKvudyieVZbR2MHL0mwF-205" value="" style="shape=partialRectangle;connectable=0;fillColor=none;top=0;left=0;bottom=0;right=0;fontStyle=0;overflow=hidden;fontSize=16;" parent="ZKvudyieVZbR2MHL0mwF-204" vertex="1">
          <mxGeometry width="30" height="40" as="geometry">
            <mxRectangle width="30" height="40" as="alternateBounds" />
          </mxGeometry>
        </mxCell>
        <mxCell id="ZKvudyieVZbR2MHL0mwF-206" value="payment_uid" style="shape=partialRectangle;connectable=0;fillColor=none;top=0;left=0;bottom=0;right=0;align=left;spacingLeft=6;fontStyle=0;overflow=hidden;fontSize=16;" parent="ZKvudyieVZbR2MHL0mwF-204" vertex="1">
          <mxGeometry x="30" width="170" height="40" as="geometry">
            <mxRectangle width="170" height="40" as="alternateBounds" />
          </mxGeometry>
        </mxCell>
        <mxCell id="ZKvudyieVZbR2MHL0mwF-207" style="shape=tableRow;horizontal=0;startSize=0;swimlaneHead=0;swimlaneBody=0;fillColor=none;collapsible=0;dropTarget=0;points=[[0,0.5],[1,0.5]];portConstraint=eastwest;top=0;left=0;right=0;bottom=1;swimlaneLine=1;fontSize=16;" parent="ZKvudyieVZbR2MHL0mwF-194" vertex="1">
          <mxGeometry y="200" width="200" height="40" as="geometry" />
        </mxCell>
        <mxCell id="ZKvudyieVZbR2MHL0mwF-208" value="FK" style="shape=partialRectangle;connectable=0;fillColor=none;top=0;left=0;bottom=0;right=0;fontStyle=0;overflow=hidden;fontSize=16;" parent="ZKvudyieVZbR2MHL0mwF-207" vertex="1">
          <mxGeometry width="30" height="40" as="geometry">
            <mxRectangle width="30" height="40" as="alternateBounds" />
          </mxGeometry>
        </mxCell>
        <mxCell id="ZKvudyieVZbR2MHL0mwF-209" value="hotel_id" style="shape=partialRectangle;connectable=0;fillColor=none;top=0;left=0;bottom=0;right=0;align=left;spacingLeft=6;fontStyle=0;overflow=hidden;fontSize=16;" parent="ZKvudyieVZbR2MHL0mwF-207" vertex="1">
          <mxGeometry x="30" width="170" height="40" as="geometry">
            <mxRectangle width="170" height="40" as="alternateBounds" />
          </mxGeometry>
        </mxCell>
        <mxCell id="ZKvudyieVZbR2MHL0mwF-217" style="shape=tableRow;horizontal=0;startSize=0;swimlaneHead=0;swimlaneBody=0;fillColor=none;collapsible=0;dropTarget=0;points=[[0,0.5],[1,0.5]];portConstraint=eastwest;top=0;left=0;right=0;bottom=1;swimlaneLine=1;fontSize=16;" parent="ZKvudyieVZbR2MHL0mwF-194" vertex="1">
          <mxGeometry y="240" width="200" height="40" as="geometry" />
        </mxCell>
        <mxCell id="ZKvudyieVZbR2MHL0mwF-218" style="shape=partialRectangle;connectable=0;fillColor=none;top=0;left=0;bottom=0;right=0;fontStyle=0;overflow=hidden;fontSize=16;" parent="ZKvudyieVZbR2MHL0mwF-217" vertex="1">
          <mxGeometry width="30" height="40" as="geometry">
            <mxRectangle width="30" height="40" as="alternateBounds" />
          </mxGeometry>
        </mxCell>
        <mxCell id="ZKvudyieVZbR2MHL0mwF-219" value="status" style="shape=partialRectangle;connectable=0;fillColor=none;top=0;left=0;bottom=0;right=0;align=left;spacingLeft=6;fontStyle=0;overflow=hidden;fontSize=16;" parent="ZKvudyieVZbR2MHL0mwF-217" vertex="1">
          <mxGeometry x="30" width="170" height="40" as="geometry">
            <mxRectangle width="170" height="40" as="alternateBounds" />
          </mxGeometry>
        </mxCell>
        <mxCell id="ZKvudyieVZbR2MHL0mwF-220" style="shape=tableRow;horizontal=0;startSize=0;swimlaneHead=0;swimlaneBody=0;fillColor=none;collapsible=0;dropTarget=0;points=[[0,0.5],[1,0.5]];portConstraint=eastwest;top=0;left=0;right=0;bottom=1;swimlaneLine=1;fontSize=16;" parent="ZKvudyieVZbR2MHL0mwF-194" vertex="1">
          <mxGeometry y="280" width="200" height="40" as="geometry" />
        </mxCell>
        <mxCell id="ZKvudyieVZbR2MHL0mwF-221" style="shape=partialRectangle;connectable=0;fillColor=none;top=0;left=0;bottom=0;right=0;fontStyle=0;overflow=hidden;fontSize=16;" parent="ZKvudyieVZbR2MHL0mwF-220" vertex="1">
          <mxGeometry width="30" height="40" as="geometry">
            <mxRectangle width="30" height="40" as="alternateBounds" />
          </mxGeometry>
        </mxCell>
        <mxCell id="ZKvudyieVZbR2MHL0mwF-222" value="start_date" style="shape=partialRectangle;connectable=0;fillColor=none;top=0;left=0;bottom=0;right=0;align=left;spacingLeft=6;fontStyle=0;overflow=hidden;fontSize=16;" parent="ZKvudyieVZbR2MHL0mwF-220" vertex="1">
          <mxGeometry x="30" width="170" height="40" as="geometry">
            <mxRectangle width="170" height="40" as="alternateBounds" />
          </mxGeometry>
        </mxCell>
        <mxCell id="ZKvudyieVZbR2MHL0mwF-293" style="shape=tableRow;horizontal=0;startSize=0;swimlaneHead=0;swimlaneBody=0;fillColor=none;collapsible=0;dropTarget=0;points=[[0,0.5],[1,0.5]];portConstraint=eastwest;top=0;left=0;right=0;bottom=1;swimlaneLine=1;fontSize=16;" parent="ZKvudyieVZbR2MHL0mwF-194" vertex="1">
          <mxGeometry y="320" width="200" height="40" as="geometry" />
        </mxCell>
        <mxCell id="ZKvudyieVZbR2MHL0mwF-294" style="shape=partialRectangle;connectable=0;fillColor=none;top=0;left=0;bottom=0;right=0;fontStyle=0;overflow=hidden;fontSize=16;" parent="ZKvudyieVZbR2MHL0mwF-293" vertex="1">
          <mxGeometry width="30" height="40" as="geometry">
            <mxRectangle width="30" height="40" as="alternateBounds" />
          </mxGeometry>
        </mxCell>
        <mxCell id="ZKvudyieVZbR2MHL0mwF-295" value="end_date" style="shape=partialRectangle;connectable=0;fillColor=none;top=0;left=0;bottom=0;right=0;align=left;spacingLeft=6;fontStyle=0;overflow=hidden;fontSize=16;" parent="ZKvudyieVZbR2MHL0mwF-293" vertex="1">
          <mxGeometry x="30" width="170" height="40" as="geometry">
            <mxRectangle width="170" height="40" as="alternateBounds" />
          </mxGeometry>
        </mxCell>
        <mxCell id="ZKvudyieVZbR2MHL0mwF-246" style="edgeStyle=orthogonalEdgeStyle;rounded=0;orthogonalLoop=1;jettySize=auto;html=1;exitX=1;exitY=0.5;exitDx=0;exitDy=0;endArrow=ERone;endFill=0;startArrow=ERone;startFill=0;entryX=0;entryY=0.5;entryDx=0;entryDy=0;dashed=1;" parent="1" source="ZKvudyieVZbR2MHL0mwF-204" target="ZKvudyieVZbR2MHL0mwF-228" edge="1">
          <mxGeometry relative="1" as="geometry">
            <mxPoint x="1120" y="-300" as="targetPoint" />
            <Array as="points">
              <mxPoint x="600" y="-620" />
              <mxPoint x="600" y="-700" />
            </Array>
          </mxGeometry>
        </mxCell>
        <mxCell id="Nd8yOr4sIlYYxP33gfCK-11" value="UserAction" style="shape=table;startSize=40;container=1;collapsible=1;childLayout=tableLayout;fixedRows=1;rowLines=0;fontStyle=1;align=center;resizeLast=1;fontSize=16;" vertex="1" parent="1">
          <mxGeometry x="920" y="-800" width="200" height="480" as="geometry">
            <mxRectangle width="80" height="40" as="alternateBounds" />
          </mxGeometry>
        </mxCell>
        <mxCell id="Nd8yOr4sIlYYxP33gfCK-12" style="shape=tableRow;horizontal=0;startSize=0;swimlaneHead=0;swimlaneBody=0;fillColor=none;collapsible=0;dropTarget=0;points=[[0,0.5],[1,0.5]];portConstraint=eastwest;top=0;left=0;right=0;bottom=1;swimlaneLine=1;fontSize=16;" vertex="1" parent="Nd8yOr4sIlYYxP33gfCK-11">
          <mxGeometry y="40" width="200" height="40" as="geometry" />
        </mxCell>
        <mxCell id="Nd8yOr4sIlYYxP33gfCK-13" value="PK" style="shape=partialRectangle;connectable=0;fillColor=none;top=0;left=0;bottom=0;right=0;fontStyle=0;overflow=hidden;fontSize=16;" vertex="1" parent="Nd8yOr4sIlYYxP33gfCK-12">
          <mxGeometry width="30" height="40" as="geometry">
            <mxRectangle width="30" height="40" as="alternateBounds" />
          </mxGeometry>
        </mxCell>
        <mxCell id="Nd8yOr4sIlYYxP33gfCK-14" value="id" style="shape=partialRectangle;connectable=0;fillColor=none;top=0;left=0;bottom=0;right=0;align=left;spacingLeft=6;fontStyle=0;overflow=hidden;fontSize=16;" vertex="1" parent="Nd8yOr4sIlYYxP33gfCK-12">
          <mxGeometry x="30" width="170" height="40" as="geometry">
            <mxRectangle width="170" height="40" as="alternateBounds" />
          </mxGeometry>
        </mxCell>
        <mxCell id="Nd8yOr4sIlYYxP33gfCK-15" value="" style="shape=tableRow;horizontal=0;startSize=0;swimlaneHead=0;swimlaneBody=0;fillColor=none;collapsible=0;dropTarget=0;points=[[0,0.5],[1,0.5]];portConstraint=eastwest;top=0;left=0;right=0;bottom=0;fontSize=16;" vertex="1" parent="Nd8yOr4sIlYYxP33gfCK-11">
          <mxGeometry y="80" width="200" height="40" as="geometry" />
        </mxCell>
        <mxCell id="Nd8yOr4sIlYYxP33gfCK-16" value="" style="shape=partialRectangle;connectable=0;fillColor=none;top=0;left=0;bottom=1;right=0;editable=1;overflow=hidden;fontSize=16;" vertex="1" parent="Nd8yOr4sIlYYxP33gfCK-15">
          <mxGeometry width="30" height="40" as="geometry">
            <mxRectangle width="30" height="40" as="alternateBounds" />
          </mxGeometry>
        </mxCell>
        <mxCell id="Nd8yOr4sIlYYxP33gfCK-17" value="user_id" style="shape=partialRectangle;connectable=0;fillColor=none;top=0;left=0;bottom=1;right=0;align=left;spacingLeft=6;overflow=hidden;fontSize=16;" vertex="1" parent="Nd8yOr4sIlYYxP33gfCK-15">
          <mxGeometry x="30" width="170" height="40" as="geometry">
            <mxRectangle width="170" height="40" as="alternateBounds" />
          </mxGeometry>
        </mxCell>
        <mxCell id="Nd8yOr4sIlYYxP33gfCK-18" value="" style="shape=tableRow;horizontal=0;startSize=0;swimlaneHead=0;swimlaneBody=0;fillColor=none;collapsible=0;dropTarget=0;points=[[0,0.5],[1,0.5]];portConstraint=eastwest;top=0;left=0;right=0;bottom=1;swimlaneLine=1;fontSize=16;" vertex="1" parent="Nd8yOr4sIlYYxP33gfCK-11">
          <mxGeometry y="120" width="200" height="40" as="geometry" />
        </mxCell>
        <mxCell id="Nd8yOr4sIlYYxP33gfCK-19" value="" style="shape=partialRectangle;connectable=0;fillColor=none;top=0;left=0;bottom=0;right=0;fontStyle=0;overflow=hidden;fontSize=16;" vertex="1" parent="Nd8yOr4sIlYYxP33gfCK-18">
          <mxGeometry width="30" height="40" as="geometry">
            <mxRectangle width="30" height="40" as="alternateBounds" />
          </mxGeometry>
        </mxCell>
        <mxCell id="Nd8yOr4sIlYYxP33gfCK-20" value="username" style="shape=partialRectangle;connectable=0;fillColor=none;top=0;left=0;bottom=0;right=0;align=left;spacingLeft=6;fontStyle=0;overflow=hidden;fontSize=16;" vertex="1" parent="Nd8yOr4sIlYYxP33gfCK-18">
          <mxGeometry x="30" width="170" height="40" as="geometry">
            <mxRectangle width="170" height="40" as="alternateBounds" />
          </mxGeometry>
        </mxCell>
        <mxCell id="Nd8yOr4sIlYYxP33gfCK-21" style="shape=tableRow;horizontal=0;startSize=0;swimlaneHead=0;swimlaneBody=0;fillColor=none;collapsible=0;dropTarget=0;points=[[0,0.5],[1,0.5]];portConstraint=eastwest;top=0;left=0;right=0;bottom=1;swimlaneLine=1;fontSize=16;" vertex="1" parent="Nd8yOr4sIlYYxP33gfCK-11">
          <mxGeometry y="160" width="200" height="40" as="geometry" />
        </mxCell>
        <mxCell id="Nd8yOr4sIlYYxP33gfCK-22" style="shape=partialRectangle;connectable=0;fillColor=none;top=0;left=0;bottom=0;right=0;fontStyle=0;overflow=hidden;fontSize=16;" vertex="1" parent="Nd8yOr4sIlYYxP33gfCK-21">
          <mxGeometry width="30" height="40" as="geometry">
            <mxRectangle width="30" height="40" as="alternateBounds" />
          </mxGeometry>
        </mxCell>
        <mxCell id="Nd8yOr4sIlYYxP33gfCK-23" value="service" style="shape=partialRectangle;connectable=0;fillColor=none;top=0;left=0;bottom=0;right=0;align=left;spacingLeft=6;fontStyle=0;overflow=hidden;fontSize=16;" vertex="1" parent="Nd8yOr4sIlYYxP33gfCK-21">
          <mxGeometry x="30" width="170" height="40" as="geometry">
            <mxRectangle width="170" height="40" as="alternateBounds" />
          </mxGeometry>
        </mxCell>
        <mxCell id="Nd8yOr4sIlYYxP33gfCK-24" style="shape=tableRow;horizontal=0;startSize=0;swimlaneHead=0;swimlaneBody=0;fillColor=none;collapsible=0;dropTarget=0;points=[[0,0.5],[1,0.5]];portConstraint=eastwest;top=0;left=0;right=0;bottom=1;swimlaneLine=1;fontSize=16;" vertex="1" parent="Nd8yOr4sIlYYxP33gfCK-11">
          <mxGeometry y="200" width="200" height="40" as="geometry" />
        </mxCell>
        <mxCell id="Nd8yOr4sIlYYxP33gfCK-25" style="shape=partialRectangle;connectable=0;fillColor=none;top=0;left=0;bottom=0;right=0;fontStyle=0;overflow=hidden;fontSize=16;" vertex="1" parent="Nd8yOr4sIlYYxP33gfCK-24">
          <mxGeometry width="30" height="40" as="geometry">
            <mxRectangle width="30" height="40" as="alternateBounds" />
          </mxGeometry>
        </mxCell>
        <mxCell id="Nd8yOr4sIlYYxP33gfCK-26" value="action" style="shape=partialRectangle;connectable=0;fillColor=none;top=0;left=0;bottom=0;right=0;align=left;spacingLeft=6;fontStyle=0;overflow=hidden;fontSize=16;" vertex="1" parent="Nd8yOr4sIlYYxP33gfCK-24">
          <mxGeometry x="30" width="170" height="40" as="geometry">
            <mxRectangle width="170" height="40" as="alternateBounds" />
          </mxGeometry>
        </mxCell>
        <mxCell id="Nd8yOr4sIlYYxP33gfCK-43" style="shape=tableRow;horizontal=0;startSize=0;swimlaneHead=0;swimlaneBody=0;fillColor=none;collapsible=0;dropTarget=0;points=[[0,0.5],[1,0.5]];portConstraint=eastwest;top=0;left=0;right=0;bottom=1;swimlaneLine=1;fontSize=16;" vertex="1" parent="Nd8yOr4sIlYYxP33gfCK-11">
          <mxGeometry y="240" width="200" height="40" as="geometry" />
        </mxCell>
        <mxCell id="Nd8yOr4sIlYYxP33gfCK-44" style="shape=partialRectangle;connectable=0;fillColor=none;top=0;left=0;bottom=0;right=0;fontStyle=0;overflow=hidden;fontSize=16;" vertex="1" parent="Nd8yOr4sIlYYxP33gfCK-43">
          <mxGeometry width="30" height="40" as="geometry">
            <mxRectangle width="30" height="40" as="alternateBounds" />
          </mxGeometry>
        </mxCell>
        <mxCell id="Nd8yOr4sIlYYxP33gfCK-45" value="status" style="shape=partialRectangle;connectable=0;fillColor=none;top=0;left=0;bottom=0;right=0;align=left;spacingLeft=6;fontStyle=0;overflow=hidden;fontSize=16;" vertex="1" parent="Nd8yOr4sIlYYxP33gfCK-43">
          <mxGeometry x="30" width="170" height="40" as="geometry">
            <mxRectangle width="170" height="40" as="alternateBounds" />
          </mxGeometry>
        </mxCell>
        <mxCell id="Nd8yOr4sIlYYxP33gfCK-40" style="shape=tableRow;horizontal=0;startSize=0;swimlaneHead=0;swimlaneBody=0;fillColor=none;collapsible=0;dropTarget=0;points=[[0,0.5],[1,0.5]];portConstraint=eastwest;top=0;left=0;right=0;bottom=1;swimlaneLine=1;fontSize=16;" vertex="1" parent="Nd8yOr4sIlYYxP33gfCK-11">
          <mxGeometry y="280" width="200" height="40" as="geometry" />
        </mxCell>
        <mxCell id="Nd8yOr4sIlYYxP33gfCK-41" style="shape=partialRectangle;connectable=0;fillColor=none;top=0;left=0;bottom=0;right=0;fontStyle=0;overflow=hidden;fontSize=16;" vertex="1" parent="Nd8yOr4sIlYYxP33gfCK-40">
          <mxGeometry width="30" height="40" as="geometry">
            <mxRectangle width="30" height="40" as="alternateBounds" />
          </mxGeometry>
        </mxCell>
        <mxCell id="Nd8yOr4sIlYYxP33gfCK-42" value="timestamp" style="shape=partialRectangle;connectable=0;fillColor=none;top=0;left=0;bottom=0;right=0;align=left;spacingLeft=6;fontStyle=0;overflow=hidden;fontSize=16;" vertex="1" parent="Nd8yOr4sIlYYxP33gfCK-40">
          <mxGeometry x="30" width="170" height="40" as="geometry">
            <mxRectangle width="170" height="40" as="alternateBounds" />
          </mxGeometry>
        </mxCell>
        <mxCell id="Nd8yOr4sIlYYxP33gfCK-37" style="shape=tableRow;horizontal=0;startSize=0;swimlaneHead=0;swimlaneBody=0;fillColor=none;collapsible=0;dropTarget=0;points=[[0,0.5],[1,0.5]];portConstraint=eastwest;top=0;left=0;right=0;bottom=1;swimlaneLine=1;fontSize=16;" vertex="1" parent="Nd8yOr4sIlYYxP33gfCK-11">
          <mxGeometry y="320" width="200" height="40" as="geometry" />
        </mxCell>
        <mxCell id="Nd8yOr4sIlYYxP33gfCK-38" style="shape=partialRectangle;connectable=0;fillColor=none;top=0;left=0;bottom=0;right=0;fontStyle=0;overflow=hidden;fontSize=16;" vertex="1" parent="Nd8yOr4sIlYYxP33gfCK-37">
          <mxGeometry width="30" height="40" as="geometry">
            <mxRectangle width="30" height="40" as="alternateBounds" />
          </mxGeometry>
        </mxCell>
        <mxCell id="Nd8yOr4sIlYYxP33gfCK-39" value="metadata_json" style="shape=partialRectangle;connectable=0;fillColor=none;top=0;left=0;bottom=0;right=0;align=left;spacingLeft=6;fontStyle=0;overflow=hidden;fontSize=16;" vertex="1" parent="Nd8yOr4sIlYYxP33gfCK-37">
          <mxGeometry x="30" width="170" height="40" as="geometry">
            <mxRectangle width="170" height="40" as="alternateBounds" />
          </mxGeometry>
        </mxCell>
        <mxCell id="Nd8yOr4sIlYYxP33gfCK-34" style="shape=tableRow;horizontal=0;startSize=0;swimlaneHead=0;swimlaneBody=0;fillColor=none;collapsible=0;dropTarget=0;points=[[0,0.5],[1,0.5]];portConstraint=eastwest;top=0;left=0;right=0;bottom=1;swimlaneLine=1;fontSize=16;" vertex="1" parent="Nd8yOr4sIlYYxP33gfCK-11">
          <mxGeometry y="360" width="200" height="40" as="geometry" />
        </mxCell>
        <mxCell id="Nd8yOr4sIlYYxP33gfCK-35" style="shape=partialRectangle;connectable=0;fillColor=none;top=0;left=0;bottom=0;right=0;fontStyle=0;overflow=hidden;fontSize=16;" vertex="1" parent="Nd8yOr4sIlYYxP33gfCK-34">
          <mxGeometry width="30" height="40" as="geometry">
            <mxRectangle width="30" height="40" as="alternateBounds" />
          </mxGeometry>
        </mxCell>
        <mxCell id="Nd8yOr4sIlYYxP33gfCK-36" value="topic" style="shape=partialRectangle;connectable=0;fillColor=none;top=0;left=0;bottom=0;right=0;align=left;spacingLeft=6;fontStyle=0;overflow=hidden;fontSize=16;" vertex="1" parent="Nd8yOr4sIlYYxP33gfCK-34">
          <mxGeometry x="30" width="170" height="40" as="geometry">
            <mxRectangle width="170" height="40" as="alternateBounds" />
          </mxGeometry>
        </mxCell>
        <mxCell id="Nd8yOr4sIlYYxP33gfCK-31" style="shape=tableRow;horizontal=0;startSize=0;swimlaneHead=0;swimlaneBody=0;fillColor=none;collapsible=0;dropTarget=0;points=[[0,0.5],[1,0.5]];portConstraint=eastwest;top=0;left=0;right=0;bottom=1;swimlaneLine=1;fontSize=16;" vertex="1" parent="Nd8yOr4sIlYYxP33gfCK-11">
          <mxGeometry y="400" width="200" height="40" as="geometry" />
        </mxCell>
        <mxCell id="Nd8yOr4sIlYYxP33gfCK-32" style="shape=partialRectangle;connectable=0;fillColor=none;top=0;left=0;bottom=0;right=0;fontStyle=0;overflow=hidden;fontSize=16;" vertex="1" parent="Nd8yOr4sIlYYxP33gfCK-31">
          <mxGeometry width="30" height="40" as="geometry">
            <mxRectangle width="30" height="40" as="alternateBounds" />
          </mxGeometry>
        </mxCell>
        <mxCell id="Nd8yOr4sIlYYxP33gfCK-33" value="partition" style="shape=partialRectangle;connectable=0;fillColor=none;top=0;left=0;bottom=0;right=0;align=left;spacingLeft=6;fontStyle=0;overflow=hidden;fontSize=16;" vertex="1" parent="Nd8yOr4sIlYYxP33gfCK-31">
          <mxGeometry x="30" width="170" height="40" as="geometry">
            <mxRectangle width="170" height="40" as="alternateBounds" />
          </mxGeometry>
        </mxCell>
        <mxCell id="Nd8yOr4sIlYYxP33gfCK-28" style="shape=tableRow;horizontal=0;startSize=0;swimlaneHead=0;swimlaneBody=0;fillColor=none;collapsible=0;dropTarget=0;points=[[0,0.5],[1,0.5]];portConstraint=eastwest;top=0;left=0;right=0;bottom=1;swimlaneLine=1;fontSize=16;" vertex="1" parent="Nd8yOr4sIlYYxP33gfCK-11">
          <mxGeometry y="440" width="200" height="40" as="geometry" />
        </mxCell>
        <mxCell id="Nd8yOr4sIlYYxP33gfCK-29" style="shape=partialRectangle;connectable=0;fillColor=none;top=0;left=0;bottom=0;right=0;fontStyle=0;overflow=hidden;fontSize=16;" vertex="1" parent="Nd8yOr4sIlYYxP33gfCK-28">
          <mxGeometry width="30" height="40" as="geometry">
            <mxRectangle width="30" height="40" as="alternateBounds" />
          </mxGeometry>
        </mxCell>
        <mxCell id="Nd8yOr4sIlYYxP33gfCK-30" value="offset" style="shape=partialRectangle;connectable=0;fillColor=none;top=0;left=0;bottom=0;right=0;align=left;spacingLeft=6;fontStyle=0;overflow=hidden;fontSize=16;" vertex="1" parent="Nd8yOr4sIlYYxP33gfCK-28">
          <mxGeometry x="30" width="170" height="40" as="geometry">
            <mxRectangle width="170" height="40" as="alternateBounds" />
          </mxGeometry>
        </mxCell>
        <mxCell id="Nd8yOr4sIlYYxP33gfCK-49" value="ReservationService" style="swimlane;whiteSpace=wrap;html=1;" vertex="1" parent="1">
          <mxGeometry x="80" y="-820" width="480" height="380" as="geometry" />
        </mxCell>
        <mxCell id="Nd8yOr4sIlYYxP33gfCK-51" value="PaymentService" style="swimlane;whiteSpace=wrap;html=1;" vertex="1" parent="1">
          <mxGeometry x="640" y="-820" width="200" height="220" as="geometry" />
        </mxCell>
        <mxCell id="ZKvudyieVZbR2MHL0mwF-224" value="Payment" style="shape=table;startSize=40;container=1;collapsible=1;childLayout=tableLayout;fixedRows=1;rowLines=0;fontStyle=1;align=center;resizeLast=1;fontSize=16;" parent="Nd8yOr4sIlYYxP33gfCK-51" vertex="1">
          <mxGeometry y="20" width="200" height="200" as="geometry">
            <mxRectangle width="80" height="40" as="alternateBounds" />
          </mxGeometry>
        </mxCell>
        <mxCell id="ZKvudyieVZbR2MHL0mwF-225" style="shape=tableRow;horizontal=0;startSize=0;swimlaneHead=0;swimlaneBody=0;fillColor=none;collapsible=0;dropTarget=0;points=[[0,0.5],[1,0.5]];portConstraint=eastwest;top=0;left=0;right=0;bottom=1;swimlaneLine=1;fontSize=16;" parent="ZKvudyieVZbR2MHL0mwF-224" vertex="1">
          <mxGeometry y="40" width="200" height="40" as="geometry" />
        </mxCell>
        <mxCell id="ZKvudyieVZbR2MHL0mwF-226" value="PK" style="shape=partialRectangle;connectable=0;fillColor=none;top=0;left=0;bottom=0;right=0;fontStyle=0;overflow=hidden;fontSize=16;" parent="ZKvudyieVZbR2MHL0mwF-225" vertex="1">
          <mxGeometry width="30" height="40" as="geometry">
            <mxRectangle width="30" height="40" as="alternateBounds" />
          </mxGeometry>
        </mxCell>
        <mxCell id="ZKvudyieVZbR2MHL0mwF-227" value="id" style="shape=partialRectangle;connectable=0;fillColor=none;top=0;left=0;bottom=0;right=0;align=left;spacingLeft=6;fontStyle=0;overflow=hidden;fontSize=16;" parent="ZKvudyieVZbR2MHL0mwF-225" vertex="1">
          <mxGeometry x="30" width="170" height="40" as="geometry">
            <mxRectangle width="170" height="40" as="alternateBounds" />
          </mxGeometry>
        </mxCell>
        <mxCell id="ZKvudyieVZbR2MHL0mwF-228" value="" style="shape=tableRow;horizontal=0;startSize=0;swimlaneHead=0;swimlaneBody=0;fillColor=none;collapsible=0;dropTarget=0;points=[[0,0.5],[1,0.5]];portConstraint=eastwest;top=0;left=0;right=0;bottom=0;fontSize=16;" parent="ZKvudyieVZbR2MHL0mwF-224" vertex="1">
          <mxGeometry y="80" width="200" height="40" as="geometry" />
        </mxCell>
        <mxCell id="ZKvudyieVZbR2MHL0mwF-229" value="" style="shape=partialRectangle;connectable=0;fillColor=none;top=0;left=0;bottom=1;right=0;editable=1;overflow=hidden;fontSize=16;" parent="ZKvudyieVZbR2MHL0mwF-228" vertex="1">
          <mxGeometry width="30" height="40" as="geometry">
            <mxRectangle width="30" height="40" as="alternateBounds" />
          </mxGeometry>
        </mxCell>
        <mxCell id="ZKvudyieVZbR2MHL0mwF-230" value="payment_uid" style="shape=partialRectangle;connectable=0;fillColor=none;top=0;left=0;bottom=1;right=0;align=left;spacingLeft=6;overflow=hidden;fontSize=16;" parent="ZKvudyieVZbR2MHL0mwF-228" vertex="1">
          <mxGeometry x="30" width="170" height="40" as="geometry">
            <mxRectangle width="170" height="40" as="alternateBounds" />
          </mxGeometry>
        </mxCell>
        <mxCell id="ZKvudyieVZbR2MHL0mwF-231" value="" style="shape=tableRow;horizontal=0;startSize=0;swimlaneHead=0;swimlaneBody=0;fillColor=none;collapsible=0;dropTarget=0;points=[[0,0.5],[1,0.5]];portConstraint=eastwest;top=0;left=0;right=0;bottom=1;swimlaneLine=1;fontSize=16;" parent="ZKvudyieVZbR2MHL0mwF-224" vertex="1">
          <mxGeometry y="120" width="200" height="40" as="geometry" />
        </mxCell>
        <mxCell id="ZKvudyieVZbR2MHL0mwF-232" value="" style="shape=partialRectangle;connectable=0;fillColor=none;top=0;left=0;bottom=0;right=0;fontStyle=0;overflow=hidden;fontSize=16;" parent="ZKvudyieVZbR2MHL0mwF-231" vertex="1">
          <mxGeometry width="30" height="40" as="geometry">
            <mxRectangle width="30" height="40" as="alternateBounds" />
          </mxGeometry>
        </mxCell>
        <mxCell id="ZKvudyieVZbR2MHL0mwF-233" value="price" style="shape=partialRectangle;connectable=0;fillColor=none;top=0;left=0;bottom=0;right=0;align=left;spacingLeft=6;fontStyle=0;overflow=hidden;fontSize=16;" parent="ZKvudyieVZbR2MHL0mwF-231" vertex="1">
          <mxGeometry x="30" width="170" height="40" as="geometry">
            <mxRectangle width="170" height="40" as="alternateBounds" />
          </mxGeometry>
        </mxCell>
        <mxCell id="ZKvudyieVZbR2MHL0mwF-237" style="shape=tableRow;horizontal=0;startSize=0;swimlaneHead=0;swimlaneBody=0;fillColor=none;collapsible=0;dropTarget=0;points=[[0,0.5],[1,0.5]];portConstraint=eastwest;top=0;left=0;right=0;bottom=1;swimlaneLine=1;fontSize=16;" parent="ZKvudyieVZbR2MHL0mwF-224" vertex="1">
          <mxGeometry y="160" width="200" height="40" as="geometry" />
        </mxCell>
        <mxCell id="ZKvudyieVZbR2MHL0mwF-238" style="shape=partialRectangle;connectable=0;fillColor=none;top=0;left=0;bottom=0;right=0;fontStyle=0;overflow=hidden;fontSize=16;" parent="ZKvudyieVZbR2MHL0mwF-237" vertex="1">
          <mxGeometry width="30" height="40" as="geometry">
            <mxRectangle width="30" height="40" as="alternateBounds" />
          </mxGeometry>
        </mxCell>
        <mxCell id="ZKvudyieVZbR2MHL0mwF-239" value="status" style="shape=partialRectangle;connectable=0;fillColor=none;top=0;left=0;bottom=0;right=0;align=left;spacingLeft=6;fontStyle=0;overflow=hidden;fontSize=16;" parent="ZKvudyieVZbR2MHL0mwF-237" vertex="1">
          <mxGeometry x="30" width="170" height="40" as="geometry">
            <mxRectangle width="170" height="40" as="alternateBounds" />
          </mxGeometry>
        </mxCell>
        <mxCell id="Nd8yOr4sIlYYxP33gfCK-52" value="LoyaltyService" style="swimlane;whiteSpace=wrap;html=1;" vertex="1" parent="1">
          <mxGeometry x="640" y="-560" width="200" height="260" as="geometry" />
        </mxCell>
        <mxCell id="ZKvudyieVZbR2MHL0mwF-247" value="Loyalty" style="shape=table;startSize=40;container=1;collapsible=1;childLayout=tableLayout;fixedRows=1;rowLines=0;fontStyle=1;align=center;resizeLast=1;fontSize=16;" parent="Nd8yOr4sIlYYxP33gfCK-52" vertex="1">
          <mxGeometry y="20" width="200" height="240" as="geometry">
            <mxRectangle width="80" height="40" as="alternateBounds" />
          </mxGeometry>
        </mxCell>
        <mxCell id="ZKvudyieVZbR2MHL0mwF-248" style="shape=tableRow;horizontal=0;startSize=0;swimlaneHead=0;swimlaneBody=0;fillColor=none;collapsible=0;dropTarget=0;points=[[0,0.5],[1,0.5]];portConstraint=eastwest;top=0;left=0;right=0;bottom=1;swimlaneLine=1;fontSize=16;" parent="ZKvudyieVZbR2MHL0mwF-247" vertex="1">
          <mxGeometry y="40" width="200" height="40" as="geometry" />
        </mxCell>
        <mxCell id="ZKvudyieVZbR2MHL0mwF-249" value="PK" style="shape=partialRectangle;connectable=0;fillColor=none;top=0;left=0;bottom=0;right=0;fontStyle=0;overflow=hidden;fontSize=16;" parent="ZKvudyieVZbR2MHL0mwF-248" vertex="1">
          <mxGeometry width="30" height="40" as="geometry">
            <mxRectangle width="30" height="40" as="alternateBounds" />
          </mxGeometry>
        </mxCell>
        <mxCell id="ZKvudyieVZbR2MHL0mwF-250" value="id" style="shape=partialRectangle;connectable=0;fillColor=none;top=0;left=0;bottom=0;right=0;align=left;spacingLeft=6;fontStyle=0;overflow=hidden;fontSize=16;" parent="ZKvudyieVZbR2MHL0mwF-248" vertex="1">
          <mxGeometry x="30" width="170" height="40" as="geometry">
            <mxRectangle width="170" height="40" as="alternateBounds" />
          </mxGeometry>
        </mxCell>
        <mxCell id="ZKvudyieVZbR2MHL0mwF-251" value="" style="shape=tableRow;horizontal=0;startSize=0;swimlaneHead=0;swimlaneBody=0;fillColor=none;collapsible=0;dropTarget=0;points=[[0,0.5],[1,0.5]];portConstraint=eastwest;top=0;left=0;right=0;bottom=0;fontSize=16;" parent="ZKvudyieVZbR2MHL0mwF-247" vertex="1">
          <mxGeometry y="80" width="200" height="40" as="geometry" />
        </mxCell>
        <mxCell id="ZKvudyieVZbR2MHL0mwF-252" value="" style="shape=partialRectangle;connectable=0;fillColor=none;top=0;left=0;bottom=1;right=0;editable=1;overflow=hidden;fontSize=16;" parent="ZKvudyieVZbR2MHL0mwF-251" vertex="1">
          <mxGeometry width="30" height="40" as="geometry">
            <mxRectangle width="30" height="40" as="alternateBounds" />
          </mxGeometry>
        </mxCell>
        <mxCell id="ZKvudyieVZbR2MHL0mwF-253" value="username" style="shape=partialRectangle;connectable=0;fillColor=none;top=0;left=0;bottom=1;right=0;align=left;spacingLeft=6;overflow=hidden;fontSize=16;" parent="ZKvudyieVZbR2MHL0mwF-251" vertex="1">
          <mxGeometry x="30" width="170" height="40" as="geometry">
            <mxRectangle width="170" height="40" as="alternateBounds" />
          </mxGeometry>
        </mxCell>
        <mxCell id="ZKvudyieVZbR2MHL0mwF-254" value="" style="shape=tableRow;horizontal=0;startSize=0;swimlaneHead=0;swimlaneBody=0;fillColor=none;collapsible=0;dropTarget=0;points=[[0,0.5],[1,0.5]];portConstraint=eastwest;top=0;left=0;right=0;bottom=1;swimlaneLine=1;fontSize=16;" parent="ZKvudyieVZbR2MHL0mwF-247" vertex="1">
          <mxGeometry y="120" width="200" height="40" as="geometry" />
        </mxCell>
        <mxCell id="ZKvudyieVZbR2MHL0mwF-255" value="" style="shape=partialRectangle;connectable=0;fillColor=none;top=0;left=0;bottom=0;right=0;fontStyle=0;overflow=hidden;fontSize=16;" parent="ZKvudyieVZbR2MHL0mwF-254" vertex="1">
          <mxGeometry width="30" height="40" as="geometry">
            <mxRectangle width="30" height="40" as="alternateBounds" />
          </mxGeometry>
        </mxCell>
        <mxCell id="ZKvudyieVZbR2MHL0mwF-256" value="reservation_count" style="shape=partialRectangle;connectable=0;fillColor=none;top=0;left=0;bottom=0;right=0;align=left;spacingLeft=6;fontStyle=0;overflow=hidden;fontSize=16;" parent="ZKvudyieVZbR2MHL0mwF-254" vertex="1">
          <mxGeometry x="30" width="170" height="40" as="geometry">
            <mxRectangle width="170" height="40" as="alternateBounds" />
          </mxGeometry>
        </mxCell>
        <mxCell id="ZKvudyieVZbR2MHL0mwF-257" style="shape=tableRow;horizontal=0;startSize=0;swimlaneHead=0;swimlaneBody=0;fillColor=none;collapsible=0;dropTarget=0;points=[[0,0.5],[1,0.5]];portConstraint=eastwest;top=0;left=0;right=0;bottom=1;swimlaneLine=1;fontSize=16;" parent="ZKvudyieVZbR2MHL0mwF-247" vertex="1">
          <mxGeometry y="160" width="200" height="40" as="geometry" />
        </mxCell>
        <mxCell id="ZKvudyieVZbR2MHL0mwF-258" style="shape=partialRectangle;connectable=0;fillColor=none;top=0;left=0;bottom=0;right=0;fontStyle=0;overflow=hidden;fontSize=16;" parent="ZKvudyieVZbR2MHL0mwF-257" vertex="1">
          <mxGeometry width="30" height="40" as="geometry">
            <mxRectangle width="30" height="40" as="alternateBounds" />
          </mxGeometry>
        </mxCell>
        <mxCell id="ZKvudyieVZbR2MHL0mwF-259" value="discount" style="shape=partialRectangle;connectable=0;fillColor=none;top=0;left=0;bottom=0;right=0;align=left;spacingLeft=6;fontStyle=0;overflow=hidden;fontSize=16;" parent="ZKvudyieVZbR2MHL0mwF-257" vertex="1">
          <mxGeometry x="30" width="170" height="40" as="geometry">
            <mxRectangle width="170" height="40" as="alternateBounds" />
          </mxGeometry>
        </mxCell>
        <mxCell id="ZKvudyieVZbR2MHL0mwF-288" style="shape=tableRow;horizontal=0;startSize=0;swimlaneHead=0;swimlaneBody=0;fillColor=none;collapsible=0;dropTarget=0;points=[[0,0.5],[1,0.5]];portConstraint=eastwest;top=0;left=0;right=0;bottom=1;swimlaneLine=1;fontSize=16;" parent="ZKvudyieVZbR2MHL0mwF-247" vertex="1">
          <mxGeometry y="200" width="200" height="40" as="geometry" />
        </mxCell>
        <mxCell id="ZKvudyieVZbR2MHL0mwF-289" style="shape=partialRectangle;connectable=0;fillColor=none;top=0;left=0;bottom=0;right=0;fontStyle=0;overflow=hidden;fontSize=16;" parent="ZKvudyieVZbR2MHL0mwF-288" vertex="1">
          <mxGeometry width="30" height="40" as="geometry">
            <mxRectangle width="30" height="40" as="alternateBounds" />
          </mxGeometry>
        </mxCell>
        <mxCell id="ZKvudyieVZbR2MHL0mwF-290" value="status" style="shape=partialRectangle;connectable=0;fillColor=none;top=0;left=0;bottom=0;right=0;align=left;spacingLeft=6;fontStyle=0;overflow=hidden;fontSize=16;" parent="ZKvudyieVZbR2MHL0mwF-288" vertex="1">
          <mxGeometry x="30" width="170" height="40" as="geometry">
            <mxRectangle width="170" height="40" as="alternateBounds" />
          </mxGeometry>
        </mxCell>
        <mxCell id="Nd8yOr4sIlYYxP33gfCK-53" value="StatisticsService" style="swimlane;whiteSpace=wrap;html=1;" vertex="1" parent="1">
          <mxGeometry x="920" y="-820" width="200" height="500" as="geometry" />
        </mxCell>
        <mxCell id="Nd8yOr4sIlYYxP33gfCK-88" value="IdentityService" style="swimlane;whiteSpace=wrap;html=1;startSize=20;" vertex="1" parent="1">
          <mxGeometry x="80" y="-400" width="520" height="380" as="geometry" />
        </mxCell>
        <mxCell id="Nd8yOr4sIlYYxP33gfCK-54" value="Client" style="shape=table;startSize=40;container=1;collapsible=1;childLayout=tableLayout;fixedRows=1;rowLines=0;fontStyle=1;align=center;resizeLast=1;fontSize=16;" vertex="1" parent="Nd8yOr4sIlYYxP33gfCK-88">
          <mxGeometry y="20" width="200" height="320" as="geometry">
            <mxRectangle width="80" height="40" as="alternateBounds" />
          </mxGeometry>
        </mxCell>
        <mxCell id="Nd8yOr4sIlYYxP33gfCK-55" style="shape=tableRow;horizontal=0;startSize=0;swimlaneHead=0;swimlaneBody=0;fillColor=none;collapsible=0;dropTarget=0;points=[[0,0.5],[1,0.5]];portConstraint=eastwest;top=0;left=0;right=0;bottom=1;swimlaneLine=1;fontSize=16;" vertex="1" parent="Nd8yOr4sIlYYxP33gfCK-54">
          <mxGeometry y="40" width="200" height="40" as="geometry" />
        </mxCell>
        <mxCell id="Nd8yOr4sIlYYxP33gfCK-56" value="PK" style="shape=partialRectangle;connectable=0;fillColor=none;top=0;left=0;bottom=0;right=0;fontStyle=0;overflow=hidden;fontSize=16;" vertex="1" parent="Nd8yOr4sIlYYxP33gfCK-55">
          <mxGeometry width="30" height="40" as="geometry">
            <mxRectangle width="30" height="40" as="alternateBounds" />
          </mxGeometry>
        </mxCell>
        <mxCell id="Nd8yOr4sIlYYxP33gfCK-57" value="id" style="shape=partialRectangle;connectable=0;fillColor=none;top=0;left=0;bottom=0;right=0;align=left;spacingLeft=6;fontStyle=0;overflow=hidden;fontSize=16;" vertex="1" parent="Nd8yOr4sIlYYxP33gfCK-55">
          <mxGeometry x="30" width="170" height="40" as="geometry">
            <mxRectangle width="170" height="40" as="alternateBounds" />
          </mxGeometry>
        </mxCell>
        <mxCell id="Nd8yOr4sIlYYxP33gfCK-58" value="" style="shape=tableRow;horizontal=0;startSize=0;swimlaneHead=0;swimlaneBody=0;fillColor=none;collapsible=0;dropTarget=0;points=[[0,0.5],[1,0.5]];portConstraint=eastwest;top=0;left=0;right=0;bottom=0;fontSize=16;" vertex="1" parent="Nd8yOr4sIlYYxP33gfCK-54">
          <mxGeometry y="80" width="200" height="40" as="geometry" />
        </mxCell>
        <mxCell id="Nd8yOr4sIlYYxP33gfCK-59" value="" style="shape=partialRectangle;connectable=0;fillColor=none;top=0;left=0;bottom=1;right=0;editable=1;overflow=hidden;fontSize=16;" vertex="1" parent="Nd8yOr4sIlYYxP33gfCK-58">
          <mxGeometry width="30" height="40" as="geometry">
            <mxRectangle width="30" height="40" as="alternateBounds" />
          </mxGeometry>
        </mxCell>
        <mxCell id="Nd8yOr4sIlYYxP33gfCK-60" value="client_id" style="shape=partialRectangle;connectable=0;fillColor=none;top=0;left=0;bottom=1;right=0;align=left;spacingLeft=6;overflow=hidden;fontSize=16;" vertex="1" parent="Nd8yOr4sIlYYxP33gfCK-58">
          <mxGeometry x="30" width="170" height="40" as="geometry">
            <mxRectangle width="170" height="40" as="alternateBounds" />
          </mxGeometry>
        </mxCell>
        <mxCell id="Nd8yOr4sIlYYxP33gfCK-61" value="" style="shape=tableRow;horizontal=0;startSize=0;swimlaneHead=0;swimlaneBody=0;fillColor=none;collapsible=0;dropTarget=0;points=[[0,0.5],[1,0.5]];portConstraint=eastwest;top=0;left=0;right=0;bottom=1;swimlaneLine=1;fontSize=16;" vertex="1" parent="Nd8yOr4sIlYYxP33gfCK-54">
          <mxGeometry y="120" width="200" height="40" as="geometry" />
        </mxCell>
        <mxCell id="Nd8yOr4sIlYYxP33gfCK-62" value="" style="shape=partialRectangle;connectable=0;fillColor=none;top=0;left=0;bottom=0;right=0;fontStyle=0;overflow=hidden;fontSize=16;" vertex="1" parent="Nd8yOr4sIlYYxP33gfCK-61">
          <mxGeometry width="30" height="40" as="geometry">
            <mxRectangle width="30" height="40" as="alternateBounds" />
          </mxGeometry>
        </mxCell>
        <mxCell id="Nd8yOr4sIlYYxP33gfCK-63" value="audience" style="shape=partialRectangle;connectable=0;fillColor=none;top=0;left=0;bottom=0;right=0;align=left;spacingLeft=6;fontStyle=0;overflow=hidden;fontSize=16;" vertex="1" parent="Nd8yOr4sIlYYxP33gfCK-61">
          <mxGeometry x="30" width="170" height="40" as="geometry">
            <mxRectangle width="170" height="40" as="alternateBounds" />
          </mxGeometry>
        </mxCell>
        <mxCell id="Nd8yOr4sIlYYxP33gfCK-64" style="shape=tableRow;horizontal=0;startSize=0;swimlaneHead=0;swimlaneBody=0;fillColor=none;collapsible=0;dropTarget=0;points=[[0,0.5],[1,0.5]];portConstraint=eastwest;top=0;left=0;right=0;bottom=1;swimlaneLine=1;fontSize=16;" vertex="1" parent="Nd8yOr4sIlYYxP33gfCK-54">
          <mxGeometry y="160" width="200" height="40" as="geometry" />
        </mxCell>
        <mxCell id="Nd8yOr4sIlYYxP33gfCK-65" style="shape=partialRectangle;connectable=0;fillColor=none;top=0;left=0;bottom=0;right=0;fontStyle=0;overflow=hidden;fontSize=16;" vertex="1" parent="Nd8yOr4sIlYYxP33gfCK-64">
          <mxGeometry width="30" height="40" as="geometry">
            <mxRectangle width="30" height="40" as="alternateBounds" />
          </mxGeometry>
        </mxCell>
        <mxCell id="Nd8yOr4sIlYYxP33gfCK-66" value="client_secret" style="shape=partialRectangle;connectable=0;fillColor=none;top=0;left=0;bottom=0;right=0;align=left;spacingLeft=6;fontStyle=0;overflow=hidden;fontSize=16;" vertex="1" parent="Nd8yOr4sIlYYxP33gfCK-64">
          <mxGeometry x="30" width="170" height="40" as="geometry">
            <mxRectangle width="170" height="40" as="alternateBounds" />
          </mxGeometry>
        </mxCell>
        <mxCell id="Nd8yOr4sIlYYxP33gfCK-67" style="shape=tableRow;horizontal=0;startSize=0;swimlaneHead=0;swimlaneBody=0;fillColor=none;collapsible=0;dropTarget=0;points=[[0,0.5],[1,0.5]];portConstraint=eastwest;top=0;left=0;right=0;bottom=1;swimlaneLine=1;fontSize=16;" vertex="1" parent="Nd8yOr4sIlYYxP33gfCK-54">
          <mxGeometry y="200" width="200" height="40" as="geometry" />
        </mxCell>
        <mxCell id="Nd8yOr4sIlYYxP33gfCK-68" style="shape=partialRectangle;connectable=0;fillColor=none;top=0;left=0;bottom=0;right=0;fontStyle=0;overflow=hidden;fontSize=16;" vertex="1" parent="Nd8yOr4sIlYYxP33gfCK-67">
          <mxGeometry width="30" height="40" as="geometry">
            <mxRectangle width="30" height="40" as="alternateBounds" />
          </mxGeometry>
        </mxCell>
        <mxCell id="Nd8yOr4sIlYYxP33gfCK-69" value="redirect_uris" style="shape=partialRectangle;connectable=0;fillColor=none;top=0;left=0;bottom=0;right=0;align=left;spacingLeft=6;fontStyle=0;overflow=hidden;fontSize=16;" vertex="1" parent="Nd8yOr4sIlYYxP33gfCK-67">
          <mxGeometry x="30" width="170" height="40" as="geometry">
            <mxRectangle width="170" height="40" as="alternateBounds" />
          </mxGeometry>
        </mxCell>
        <mxCell id="Nd8yOr4sIlYYxP33gfCK-70" style="shape=tableRow;horizontal=0;startSize=0;swimlaneHead=0;swimlaneBody=0;fillColor=none;collapsible=0;dropTarget=0;points=[[0,0.5],[1,0.5]];portConstraint=eastwest;top=0;left=0;right=0;bottom=1;swimlaneLine=1;fontSize=16;" vertex="1" parent="Nd8yOr4sIlYYxP33gfCK-54">
          <mxGeometry y="240" width="200" height="40" as="geometry" />
        </mxCell>
        <mxCell id="Nd8yOr4sIlYYxP33gfCK-71" style="shape=partialRectangle;connectable=0;fillColor=none;top=0;left=0;bottom=0;right=0;fontStyle=0;overflow=hidden;fontSize=16;" vertex="1" parent="Nd8yOr4sIlYYxP33gfCK-70">
          <mxGeometry width="30" height="40" as="geometry">
            <mxRectangle width="30" height="40" as="alternateBounds" />
          </mxGeometry>
        </mxCell>
        <mxCell id="Nd8yOr4sIlYYxP33gfCK-72" value="allowed_scopes" style="shape=partialRectangle;connectable=0;fillColor=none;top=0;left=0;bottom=0;right=0;align=left;spacingLeft=6;fontStyle=0;overflow=hidden;fontSize=16;" vertex="1" parent="Nd8yOr4sIlYYxP33gfCK-70">
          <mxGeometry x="30" width="170" height="40" as="geometry">
            <mxRectangle width="170" height="40" as="alternateBounds" />
          </mxGeometry>
        </mxCell>
        <mxCell id="Nd8yOr4sIlYYxP33gfCK-73" style="shape=tableRow;horizontal=0;startSize=0;swimlaneHead=0;swimlaneBody=0;fillColor=none;collapsible=0;dropTarget=0;points=[[0,0.5],[1,0.5]];portConstraint=eastwest;top=0;left=0;right=0;bottom=1;swimlaneLine=1;fontSize=16;" vertex="1" parent="Nd8yOr4sIlYYxP33gfCK-54">
          <mxGeometry y="280" width="200" height="40" as="geometry" />
        </mxCell>
        <mxCell id="Nd8yOr4sIlYYxP33gfCK-74" style="shape=partialRectangle;connectable=0;fillColor=none;top=0;left=0;bottom=0;right=0;fontStyle=0;overflow=hidden;fontSize=16;" vertex="1" parent="Nd8yOr4sIlYYxP33gfCK-73">
          <mxGeometry width="30" height="40" as="geometry">
            <mxRectangle width="30" height="40" as="alternateBounds" />
          </mxGeometry>
        </mxCell>
        <mxCell id="Nd8yOr4sIlYYxP33gfCK-75" value="require_pkce" style="shape=partialRectangle;connectable=0;fillColor=none;top=0;left=0;bottom=0;right=0;align=left;spacingLeft=6;fontStyle=0;overflow=hidden;fontSize=16;" vertex="1" parent="Nd8yOr4sIlYYxP33gfCK-73">
          <mxGeometry x="30" width="170" height="40" as="geometry">
            <mxRectangle width="170" height="40" as="alternateBounds" />
          </mxGeometry>
        </mxCell>
        <mxCell id="Nd8yOr4sIlYYxP33gfCK-89" value="AuthorizationCode" style="shape=table;startSize=40;container=1;collapsible=1;childLayout=tableLayout;fixedRows=1;rowLines=0;fontStyle=1;align=center;resizeLast=1;fontSize=16;" vertex="1" parent="Nd8yOr4sIlYYxP33gfCK-88">
          <mxGeometry x="280" y="20" width="240" height="360" as="geometry">
            <mxRectangle width="80" height="40" as="alternateBounds" />
          </mxGeometry>
        </mxCell>
        <mxCell id="Nd8yOr4sIlYYxP33gfCK-90" style="shape=tableRow;horizontal=0;startSize=0;swimlaneHead=0;swimlaneBody=0;fillColor=none;collapsible=0;dropTarget=0;points=[[0,0.5],[1,0.5]];portConstraint=eastwest;top=0;left=0;right=0;bottom=1;swimlaneLine=1;fontSize=16;" vertex="1" parent="Nd8yOr4sIlYYxP33gfCK-89">
          <mxGeometry y="40" width="240" height="40" as="geometry" />
        </mxCell>
        <mxCell id="Nd8yOr4sIlYYxP33gfCK-91" value="PK" style="shape=partialRectangle;connectable=0;fillColor=none;top=0;left=0;bottom=0;right=0;fontStyle=0;overflow=hidden;fontSize=16;" vertex="1" parent="Nd8yOr4sIlYYxP33gfCK-90">
          <mxGeometry width="30" height="40" as="geometry">
            <mxRectangle width="30" height="40" as="alternateBounds" />
          </mxGeometry>
        </mxCell>
        <mxCell id="Nd8yOr4sIlYYxP33gfCK-92" value="code" style="shape=partialRectangle;connectable=0;fillColor=none;top=0;left=0;bottom=0;right=0;align=left;spacingLeft=6;fontStyle=0;overflow=hidden;fontSize=16;" vertex="1" parent="Nd8yOr4sIlYYxP33gfCK-90">
          <mxGeometry x="30" width="210" height="40" as="geometry">
            <mxRectangle width="210" height="40" as="alternateBounds" />
          </mxGeometry>
        </mxCell>
        <mxCell id="Nd8yOr4sIlYYxP33gfCK-93" value="" style="shape=tableRow;horizontal=0;startSize=0;swimlaneHead=0;swimlaneBody=0;fillColor=none;collapsible=0;dropTarget=0;points=[[0,0.5],[1,0.5]];portConstraint=eastwest;top=0;left=0;right=0;bottom=0;fontSize=16;" vertex="1" parent="Nd8yOr4sIlYYxP33gfCK-89">
          <mxGeometry y="80" width="240" height="40" as="geometry" />
        </mxCell>
        <mxCell id="Nd8yOr4sIlYYxP33gfCK-94" value="" style="shape=partialRectangle;connectable=0;fillColor=none;top=0;left=0;bottom=1;right=0;editable=1;overflow=hidden;fontSize=16;" vertex="1" parent="Nd8yOr4sIlYYxP33gfCK-93">
          <mxGeometry width="30" height="40" as="geometry">
            <mxRectangle width="30" height="40" as="alternateBounds" />
          </mxGeometry>
        </mxCell>
        <mxCell id="Nd8yOr4sIlYYxP33gfCK-95" value="client_id" style="shape=partialRectangle;connectable=0;fillColor=none;top=0;left=0;bottom=1;right=0;align=left;spacingLeft=6;overflow=hidden;fontSize=16;" vertex="1" parent="Nd8yOr4sIlYYxP33gfCK-93">
          <mxGeometry x="30" width="210" height="40" as="geometry">
            <mxRectangle width="210" height="40" as="alternateBounds" />
          </mxGeometry>
        </mxCell>
        <mxCell id="Nd8yOr4sIlYYxP33gfCK-96" value="" style="shape=tableRow;horizontal=0;startSize=0;swimlaneHead=0;swimlaneBody=0;fillColor=none;collapsible=0;dropTarget=0;points=[[0,0.5],[1,0.5]];portConstraint=eastwest;top=0;left=0;right=0;bottom=1;swimlaneLine=1;fontSize=16;" vertex="1" parent="Nd8yOr4sIlYYxP33gfCK-89">
          <mxGeometry y="120" width="240" height="40" as="geometry" />
        </mxCell>
        <mxCell id="Nd8yOr4sIlYYxP33gfCK-97" value="" style="shape=partialRectangle;connectable=0;fillColor=none;top=0;left=0;bottom=0;right=0;fontStyle=0;overflow=hidden;fontSize=16;" vertex="1" parent="Nd8yOr4sIlYYxP33gfCK-96">
          <mxGeometry width="30" height="40" as="geometry">
            <mxRectangle width="30" height="40" as="alternateBounds" />
          </mxGeometry>
        </mxCell>
        <mxCell id="Nd8yOr4sIlYYxP33gfCK-98" value="user_id" style="shape=partialRectangle;connectable=0;fillColor=none;top=0;left=0;bottom=0;right=0;align=left;spacingLeft=6;fontStyle=0;overflow=hidden;fontSize=16;" vertex="1" parent="Nd8yOr4sIlYYxP33gfCK-96">
          <mxGeometry x="30" width="210" height="40" as="geometry">
            <mxRectangle width="210" height="40" as="alternateBounds" />
          </mxGeometry>
        </mxCell>
        <mxCell id="Nd8yOr4sIlYYxP33gfCK-99" style="shape=tableRow;horizontal=0;startSize=0;swimlaneHead=0;swimlaneBody=0;fillColor=none;collapsible=0;dropTarget=0;points=[[0,0.5],[1,0.5]];portConstraint=eastwest;top=0;left=0;right=0;bottom=1;swimlaneLine=1;fontSize=16;" vertex="1" parent="Nd8yOr4sIlYYxP33gfCK-89">
          <mxGeometry y="160" width="240" height="40" as="geometry" />
        </mxCell>
        <mxCell id="Nd8yOr4sIlYYxP33gfCK-100" style="shape=partialRectangle;connectable=0;fillColor=none;top=0;left=0;bottom=0;right=0;fontStyle=0;overflow=hidden;fontSize=16;" vertex="1" parent="Nd8yOr4sIlYYxP33gfCK-99">
          <mxGeometry width="30" height="40" as="geometry">
            <mxRectangle width="30" height="40" as="alternateBounds" />
          </mxGeometry>
        </mxCell>
        <mxCell id="Nd8yOr4sIlYYxP33gfCK-101" value="redirect_uri" style="shape=partialRectangle;connectable=0;fillColor=none;top=0;left=0;bottom=0;right=0;align=left;spacingLeft=6;fontStyle=0;overflow=hidden;fontSize=16;" vertex="1" parent="Nd8yOr4sIlYYxP33gfCK-99">
          <mxGeometry x="30" width="210" height="40" as="geometry">
            <mxRectangle width="210" height="40" as="alternateBounds" />
          </mxGeometry>
        </mxCell>
        <mxCell id="Nd8yOr4sIlYYxP33gfCK-102" style="shape=tableRow;horizontal=0;startSize=0;swimlaneHead=0;swimlaneBody=0;fillColor=none;collapsible=0;dropTarget=0;points=[[0,0.5],[1,0.5]];portConstraint=eastwest;top=0;left=0;right=0;bottom=1;swimlaneLine=1;fontSize=16;" vertex="1" parent="Nd8yOr4sIlYYxP33gfCK-89">
          <mxGeometry y="200" width="240" height="40" as="geometry" />
        </mxCell>
        <mxCell id="Nd8yOr4sIlYYxP33gfCK-103" style="shape=partialRectangle;connectable=0;fillColor=none;top=0;left=0;bottom=0;right=0;fontStyle=0;overflow=hidden;fontSize=16;" vertex="1" parent="Nd8yOr4sIlYYxP33gfCK-102">
          <mxGeometry width="30" height="40" as="geometry">
            <mxRectangle width="30" height="40" as="alternateBounds" />
          </mxGeometry>
        </mxCell>
        <mxCell id="Nd8yOr4sIlYYxP33gfCK-104" value="scopes" style="shape=partialRectangle;connectable=0;fillColor=none;top=0;left=0;bottom=0;right=0;align=left;spacingLeft=6;fontStyle=0;overflow=hidden;fontSize=16;" vertex="1" parent="Nd8yOr4sIlYYxP33gfCK-102">
          <mxGeometry x="30" width="210" height="40" as="geometry">
            <mxRectangle width="210" height="40" as="alternateBounds" />
          </mxGeometry>
        </mxCell>
        <mxCell id="Nd8yOr4sIlYYxP33gfCK-105" style="shape=tableRow;horizontal=0;startSize=0;swimlaneHead=0;swimlaneBody=0;fillColor=none;collapsible=0;dropTarget=0;points=[[0,0.5],[1,0.5]];portConstraint=eastwest;top=0;left=0;right=0;bottom=1;swimlaneLine=1;fontSize=16;" vertex="1" parent="Nd8yOr4sIlYYxP33gfCK-89">
          <mxGeometry y="240" width="240" height="40" as="geometry" />
        </mxCell>
        <mxCell id="Nd8yOr4sIlYYxP33gfCK-106" style="shape=partialRectangle;connectable=0;fillColor=none;top=0;left=0;bottom=0;right=0;fontStyle=0;overflow=hidden;fontSize=16;" vertex="1" parent="Nd8yOr4sIlYYxP33gfCK-105">
          <mxGeometry width="30" height="40" as="geometry">
            <mxRectangle width="30" height="40" as="alternateBounds" />
          </mxGeometry>
        </mxCell>
        <mxCell id="Nd8yOr4sIlYYxP33gfCK-107" value="expiration" style="shape=partialRectangle;connectable=0;fillColor=none;top=0;left=0;bottom=0;right=0;align=left;spacingLeft=6;fontStyle=0;overflow=hidden;fontSize=16;" vertex="1" parent="Nd8yOr4sIlYYxP33gfCK-105">
          <mxGeometry x="30" width="210" height="40" as="geometry">
            <mxRectangle width="210" height="40" as="alternateBounds" />
          </mxGeometry>
        </mxCell>
        <mxCell id="Nd8yOr4sIlYYxP33gfCK-108" style="shape=tableRow;horizontal=0;startSize=0;swimlaneHead=0;swimlaneBody=0;fillColor=none;collapsible=0;dropTarget=0;points=[[0,0.5],[1,0.5]];portConstraint=eastwest;top=0;left=0;right=0;bottom=1;swimlaneLine=1;fontSize=16;" vertex="1" parent="Nd8yOr4sIlYYxP33gfCK-89">
          <mxGeometry y="280" width="240" height="40" as="geometry" />
        </mxCell>
        <mxCell id="Nd8yOr4sIlYYxP33gfCK-109" style="shape=partialRectangle;connectable=0;fillColor=none;top=0;left=0;bottom=0;right=0;fontStyle=0;overflow=hidden;fontSize=16;" vertex="1" parent="Nd8yOr4sIlYYxP33gfCK-108">
          <mxGeometry width="30" height="40" as="geometry">
            <mxRectangle width="30" height="40" as="alternateBounds" />
          </mxGeometry>
        </mxCell>
        <mxCell id="Nd8yOr4sIlYYxP33gfCK-110" value="code_challenge" style="shape=partialRectangle;connectable=0;fillColor=none;top=0;left=0;bottom=0;right=0;align=left;spacingLeft=6;fontStyle=0;overflow=hidden;fontSize=16;" vertex="1" parent="Nd8yOr4sIlYYxP33gfCK-108">
          <mxGeometry x="30" width="210" height="40" as="geometry">
            <mxRectangle width="210" height="40" as="alternateBounds" />
          </mxGeometry>
        </mxCell>
        <mxCell id="Nd8yOr4sIlYYxP33gfCK-111" style="shape=tableRow;horizontal=0;startSize=0;swimlaneHead=0;swimlaneBody=0;fillColor=none;collapsible=0;dropTarget=0;points=[[0,0.5],[1,0.5]];portConstraint=eastwest;top=0;left=0;right=0;bottom=1;swimlaneLine=1;fontSize=16;" vertex="1" parent="Nd8yOr4sIlYYxP33gfCK-89">
          <mxGeometry y="320" width="240" height="40" as="geometry" />
        </mxCell>
        <mxCell id="Nd8yOr4sIlYYxP33gfCK-112" style="shape=partialRectangle;connectable=0;fillColor=none;top=0;left=0;bottom=0;right=0;fontStyle=0;overflow=hidden;fontSize=16;" vertex="1" parent="Nd8yOr4sIlYYxP33gfCK-111">
          <mxGeometry width="30" height="40" as="geometry">
            <mxRectangle width="30" height="40" as="alternateBounds" />
          </mxGeometry>
        </mxCell>
        <mxCell id="Nd8yOr4sIlYYxP33gfCK-113" value="code_challenge_method" style="shape=partialRectangle;connectable=0;fillColor=none;top=0;left=0;bottom=0;right=0;align=left;spacingLeft=6;fontStyle=0;overflow=hidden;fontSize=16;" vertex="1" parent="Nd8yOr4sIlYYxP33gfCK-111">
          <mxGeometry x="30" width="210" height="40" as="geometry">
            <mxRectangle width="210" height="40" as="alternateBounds" />
          </mxGeometry>
        </mxCell>
      </root>
    </mxGraphModel>
  </diagram>
</mxfile>
